# xmcd
#
# Track frame offsets:
#	150
#	22639
#	46521
#	67704
#	84171
#
# Disc length: 1432 seconds
#
# Revision: 1
# Processed by: cddbd v1.5.2PL0 Copyright (c) Steve Scherf et al.
# Submitted via: audiograbber 1.83.01
#
DISCID=1f059605
DTITLE=Don McRay - Don McRay
DYEAR=1900
DGENRE=
TTITLE0=Fallen From Texas
TTITLE1=Soldiers Of A Nation
TTITLE2=Let´s Roll
TTITLE3=Headdin Home To Texas
TTITLE4=Headdin Home To Texas
EXTD=
EXTT0=
EXTT1=
EXTT2=
EXTT3=
EXTT4=
PLAYORDER=
